<?xml version="1.0" standalone="no"?>
<!DOCTYPE svg PUBLIC "-//W3C//DTD SVG 20010904//EN"
 "http://www.w3.org/TR/2001/REC-SVG-20010904/DTD/svg10.dtd">
<svg version="1.0" xmlns="http://www.w3.org/2000/svg"
 width="186.000000pt" height="186.000000pt" viewBox="0 0 186.000000 186.000000"
 preserveAspectRatio="xMidYMid meet">
<metadata>
Created by potrace 1.14, written by Peter Selinger 2001-2017
</metadata>
<g transform="translate(0.000000,186.000000) scale(0.100000,-0.100000)"
fill="#000000" stroke="none">
<path d="M850 1847 c0 -4 -6 -7 -12 -5 -38 7 -187 -30 -277 -69 -41 -18 -48
-18 -75 -4 -17 8 -37 21 -44 28 -21 21 -61 28 -157 28 -118 0 -175 -31 -222
-118 -28 -51 -23 -201 10 -301 23 -72 25 -82 12 -112 -13 -33 -13 -33 17 -36
48 -5 48 -28 0 -28 -43 0 -57 -17 -68 -90 l-6 -39 97 -3 c68 -2 100 -7 103
-15 3 -10 -22 -13 -101 -13 -118 0 -115 2 -113 -87 l1 -38 153 0 c126 0 155
-3 162 -15 7 -14 -12 -15 -157 -15 l-165 1 6 -61 c3 -33 5 -61 6 -62 0 -2 96
-3 214 -3 181 0 215 -2 220 -15 5 -13 -23 -15 -209 -15 -243 0 -229 6 -199
-82 l15 -46 247 0 c306 -1 282 1 282 -16 0 -12 -38 -15 -237 -14 -131 0 -248
-1 -260 -1 l-23 -1 25 -57 c14 -31 28 -59 30 -61 2 -3 117 -5 255 -5 206 1
250 -2 250 -13 0 -16 10 -16 -267 -16 -117 -1 -213 -4 -213 -7 0 -3 20 -32 45
-63 l45 -58 212 -2 c156 -2 212 -6 215 -15 4 -10 -43 -13 -198 -15 l-202 -3
73 -60 73 -60 261 1 c144 1 307 4 362 8 101 7 102 7 160 -24 l59 -31 -165 7
c-228 8 -590 10 -602 3 -10 -7 100 -56 187 -83 166 -52 401 -42 581 25 l53 20
93 -32 c199 -68 359 -44 415 64 24 47 40 117 36 157 -8 77 -43 195 -63 212
-11 9 -20 22 -20 29 0 7 -3 9 -6 6 -14 -14 -14 -81 2 -139 27 -107 18 -205
-24 -252 -64 -70 -217 -65 -396 14 -25 12 -46 23 -46 25 0 3 33 2 74 0 74 -5
74 -5 123 33 93 74 101 71 -149 65 l-223 -4 -50 36 -50 37 301 -5 301 -6 30
42 c48 68 48 68 16 61 -15 -3 -192 -7 -393 -10 l-365 -4 -40 35 -40 34 50 -15
c88 -28 95 -29 95 -6 0 12 5 24 12 28 23 14 668 3 720 -12 13 -4 24 8 43 45
28 56 31 72 13 66 -29 -10 -152 -16 -453 -21 l-320 -6 -122 38 c-67 21 -121
40 -119 42 24 23 780 21 991 -4 l54 -7 16 57 c9 32 15 59 13 61 -1 2 -24 -1
-49 -5 -126 -24 -765 -35 -985 -18 -125 10 -238 29 -246 42 -18 28 282 51 662
51 286 0 451 -8 558 -26 35 -6 65 -10 67 -7 2 2 5 30 7 63 l3 60 -40 -2 c-22
-1 -83 -5 -135 -10 -125 -11 -810 -10 -925 1 -49 5 -139 9 -200 10 -103 1
-135 7 -135 24 0 4 51 8 113 8 61 0 153 5 202 10 50 5 261 9 470 9 324 0 451
-4 605 -20 38 -3 49 4 45 33 -2 15 -4 42 -4 61 l-1 34 -172 -8 c-339 -17
-1346 -2 -1360 19 -4 6 -4 12 0 13 4 1 135 5 292 9 413 10 912 10 1084 0 143
-9 148 -8 143 10 -3 10 -10 40 -17 65 l-12 47 -217 -5 c-354 -8 -1330 1 -1358
12 -7 2 -13 9 -13 14 0 12 944 19 1382 11 98 -2 181 -1 185 3 12 13 -45 117
-64 118 -10 0 -365 1 -790 1 l-771 1 -10 23 c-37 81 -40 244 -6 291 44 58 93
70 244 60 41 -3 86 -6 100 -7 14 -1 19 -4 13 -7 -7 -2 -13 -8 -13 -11 0 -4
202 -7 450 -7 323 0 446 3 437 11 -22 20 -135 64 -213 84 -109 28 -304 45
-304 27z m-75 -1397 c15 -17 16 -20 3 -20 -9 0 -18 9 -21 20 -3 11 -4 20 -3
20 2 0 11 -9 21 -20z m193 -151 c12 -8 22 -17 22 -20 0 -6 -166 -1 -187 6 -7
2 -13 13 -13 24 0 17 8 20 58 23 54 3 67 -1 120 -33z"/>
<path d="M418 1691 c-14 -4 -148 -111 -148 -117 0 -2 296 -4 657 -4 l657 0
-34 35 c-19 19 -52 47 -74 62 l-39 28 -503 0 c-277 0 -509 -2 -516 -4z"/>
<path d="M195 1483 c-25 -32 -45 -61 -45 -64 0 -3 349 -6 775 -6 443 0 775 4
775 9 0 5 -19 33 -41 63 l-41 55 -689 0 -689 0 -45 -57z"/>
</g>
</svg>
